# xmcd
#
# Track frame offsets:
#	150
#	17986
#	40424
#	62245
#	78476
#	115285
#	139998
#	158257
#	171720
#	197914
#	216861
#	236390
#	258899
#	275042
#	298891
#	320077
#
# Disc length: 4464 seconds
#
# Revision: 0
# Processed by: cddbd v1.4PL0 Copyright (c) Steve Scherf et al.
# Submitted via: dBpowerAMP V4.0
#
DISCID=fc116e10
DTITLE=Jorge Aragão - Os melhores sucessos
DYEAR=1900
DGENRE=Pagode
TTITLE0=Coisa de Pele
TTITLE1=Alvará
TTITLE2=Feito de Paixão
TTITLE3=Colcha de Algodão
TTITLE4=Pout-Pourri
TTITLE5=Eu e Você Sempre
TTITLE6=Papel de Pão
TTITLE7=Logo Agora
TTITLE8=Só por um Momento
TTITLE9=Reflexão
TTITLE10=Loucura de um Paixão
TTITLE11=San Guine
TTITLE12=Doce Amizada
TTITLE13=É tanta essa dor
TTITLE14=Você Abusou
TTITLE15=Rede Velha
EXTD=
EXTT0=
EXTT1=
EXTT2=
EXTT3=
EXTT4=
EXTT5=
EXTT6=
EXTT7=
EXTT8=
EXTT9=
EXTT10=
EXTT11=
EXTT12=
EXTT13=
EXTT14=
EXTT15=
PLAYORDER=
